<?xml version="1.0" standalone="no"?>
<!DOCTYPE svg PUBLIC "-//W3C//DTD SVG 20010904//EN"
 "http://www.w3.org/TR/2001/REC-SVG-20010904/DTD/svg10.dtd">
<svg version="1.0" xmlns="http://www.w3.org/2000/svg"
 width="1500.000000pt" height="1500.000000pt" viewBox="0 0 1500.000000 1500.000000"
 preserveAspectRatio="xMidYMid meet">
<metadata>
Created by potrace 1.11, written by Peter Selinger 2001-2013
</metadata>
<g transform="translate(0.000000,1500.000000) scale(0.100000,-0.100000)"
fill="#000000" stroke="none">
<path d="M1292 10792 c-16 -13 -20 -20 -11 -29 7 -7 7 -13 0 -17 -5 -4 -8 -13
-4 -21 3 -8 0 -15 -7 -15 -8 0 -11 -13 -8 -40 2 -22 0 -40 -5 -40 -4 0 -6 -4
-3 -9 3 -5 -1 -12 -10 -15 -9 -4 -12 -11 -7 -18 13 -21 9 -42 -10 -56 -13 -10
-15 -17 -7 -27 7 -8 7 -15 1 -19 -5 -3 -7 -15 -4 -26 3 -12 2 -20 -3 -19 -20
3 -26 -2 -15 -15 8 -9 8 -16 2 -20 -6 -4 -8 -13 -4 -21 3 -8 0 -15 -7 -15 -6
0 -10 -8 -9 -17 3 -35 -1 -52 -17 -67 -10 -10 -11 -16 -3 -16 9 0 8 -4 -1 -15
-8 -10 -9 -15 -2 -15 6 0 2 -16 -9 -35 -12 -20 -16 -35 -10 -35 8 0 7 -10 -3
-29 -9 -16 -12 -31 -9 -35 4 -3 0 -6 -7 -6 -10 0 -11 -3 -3 -11 14 -14 5 -42
-10 -32 -6 4 -8 -2 -5 -15 4 -12 2 -25 -3 -28 -5 -3 -7 -10 -4 -15 4 -5 384
-9 965 -9 581 0 960 -4 962 -9 3 -11 129 -18 145 -8 5 3 19 -2 31 -13 13 -12
23 -16 27 -10 4 6 11 7 17 4 17 -11 68 -10 68 0 0 5 8 2 18 -7 11 -10 35 -17
58 -17 22 0 49 -7 61 -15 13 -9 24 -11 28 -5 7 12 55 -9 55 -24 0 -6 5 -4 10
4 5 8 10 10 10 4 0 -7 11 -9 25 -6 15 2 25 0 25 -7 0 -6 14 -11 30 -11 17 0
30 -4 30 -10 0 -5 14 -10 30 -10 17 0 30 -4 30 -10 0 -5 8 -10 19 -10 10 0 24
-7 31 -15 9 -11 15 -13 20 -5 5 8 12 7 23 -4 8 -9 23 -16 31 -16 9 0 16 -4 16
-10 0 -5 9 -10 19 -10 11 0 21 -5 23 -10 2 -6 13 -12 25 -13 12 0 20 -3 18 -5
-9 -9 25 -32 46 -32 12 0 19 -3 16 -7 -8 -7 39 -53 54 -53 16 0 79 -68 79 -85
0 -8 7 -15 17 -15 9 0 13 -3 10 -7 -4 -3 4 -16 16 -27 13 -12 22 -27 19 -34
-2 -7 2 -12 8 -12 6 0 10 -6 8 -12 -3 -7 2 -19 9 -27 8 -7 12 -20 9 -27 -3 -8
0 -14 6 -14 6 0 9 -3 5 -6 -3 -4 1 -14 10 -22 10 -11 12 -17 4 -20 -8 -3 -8
-9 -1 -23 6 -10 7 -19 3 -19 -12 0 -2 -104 11 -112 8 -6 7 -10 -3 -17 -9 -6
-12 -20 -9 -40 2 -17 1 -31 -4 -31 -5 0 -4 -9 2 -20 6 -11 7 -20 2 -20 -5 0
-7 -11 -4 -25 3 -16 0 -25 -8 -25 -7 0 -10 -7 -6 -15 3 -8 0 -15 -6 -15 -7 0
-7 -4 1 -14 9 -10 8 -16 -4 -26 -9 -7 -15 -29 -15 -51 0 -22 -5 -39 -11 -39
-5 0 -8 -4 -5 -9 3 -5 -1 -14 -10 -21 -8 -7 -13 -19 -10 -26 3 -7 1 -16 -5
-19 -5 -4 -7 -11 -4 -16 4 -5 1 -9 -5 -9 -7 0 -10 -6 -7 -12 2 -7 -5 -21 -16
-30 -14 -13 -16 -18 -6 -18 10 -1 8 -5 -5 -15 -11 -8 -17 -18 -13 -21 4 -4 -5
-17 -18 -30 -14 -13 -25 -27 -25 -31 0 -15 -52 -68 -64 -65 -6 2 -8 1 -4 -3 9
-10 -24 -45 -35 -38 -6 4 -8 -1 -4 -11 8 -20 -28 -66 -51 -66 -7 0 -11 -4 -7
-9 3 -5 -5 -11 -17 -13 -13 -2 -22 -9 -21 -16 2 -6 -3 -12 -10 -12 -7 0 -21
-11 -31 -25 -10 -13 -22 -22 -27 -19 -5 3 -9 0 -9 -5 0 -6 -3 -10 -8 -8 -9 3
-58 -45 -55 -54 1 -4 -6 -5 -15 -2 -11 3 -25 -5 -37 -20 -10 -14 -24 -23 -32
-20 -7 3 -13 0 -13 -6 0 -6 -12 -11 -26 -11 -14 0 -23 -4 -20 -9 3 -5 -5 -12
-19 -15 -14 -4 -25 -11 -25 -16 0 -5 -7 -7 -15 -4 -8 4 -15 1 -15 -6 0 -7 -8
-10 -20 -7 -11 3 -20 1 -20 -5 0 -5 -4 -6 -10 -3 -5 3 -10 1 -10 -5 0 -7 -6
-10 -14 -7 -8 3 -17 -1 -20 -9 -3 -8 -15 -14 -26 -14 -11 0 -20 -4 -20 -10 0
-5 -14 -10 -30 -10 -17 0 -33 -6 -36 -14 -3 -8 -15 -11 -30 -8 -14 2 -24 0
-24 -7 0 -6 -13 -11 -30 -11 -16 0 -30 -4 -30 -10 0 -5 -14 -10 -30 -10 -19 0
-33 -6 -37 -16 -5 -13 -7 -13 -14 -2 -7 10 -9 10 -9 0 0 -9 -5 -10 -19 -3 -14
8 -20 7 -25 -4 -3 -10 -19 -15 -46 -15 -22 0 -40 -4 -40 -10 0 -5 -22 -10 -50
-10 -30 0 -50 -4 -50 -11 0 -6 -9 -9 -20 -6 -11 3 -20 1 -20 -4 0 -6 -7 -6
-19 0 -14 8 -23 6 -38 -9 -12 -10 -24 -16 -27 -13 -9 10 -131 3 -134 -7 -2 -6
-52 -10 -113 -10 -73 0 -109 -4 -109 -11 0 -7 -17 -10 -45 -7 -25 2 -45 0 -45
-3 0 -5 -32 -4 -50 1 -3 1 -49 1 -102 0 l-98 -1 -1 28 c-1 15 0 33 1 38 1 6 3
16 3 23 0 6 7 12 15 12 11 0 12 3 3 14 -8 10 -9 16 -1 21 7 4 7 12 0 25 -8 14
-5 19 13 24 18 5 19 8 7 16 -11 7 -12 12 -3 21 6 6 9 18 6 27 -5 11 -3 13 7 7
10 -6 12 -3 8 13 -4 12 -2 25 3 28 6 3 5 11 -2 20 -8 10 -8 14 -1 14 6 0 9 7
6 15 -4 8 -1 15 6 15 8 0 11 9 8 25 -3 14 -1 25 5 25 5 0 4 7 -3 15 -10 12
-10 15 3 15 19 0 29 24 16 37 -7 7 -6 15 3 24 8 8 15 32 16 54 2 55 4 65 13
65 11 0 17 48 6 59 -6 6 -1 13 13 21 18 10 20 14 9 21 -12 7 -11 9 1 9 13 0
13 1 0 10 -9 6 -11 10 -3 10 7 0 10 7 7 15 -4 8 -1 15 6 15 7 0 10 7 6 15 -3
8 -1 15 4 15 6 0 6 9 0 25 -6 17 -6 28 3 37 7 8 13 18 14 23 1 6 5 18 8 28 4
10 3 17 -5 17 -7 0 -5 6 4 16 9 8 14 20 11 25 -4 5 -2 9 4 9 10 0 9 19 -2 38
-5 8 -2 12 8 12 9 0 14 4 10 9 -3 5 -2 12 3 15 5 3 7 19 4 36 -3 20 2 37 13
50 11 13 14 20 6 20 -7 0 -9 5 -4 13 8 13 12 27 18 65 2 13 9 29 15 37 7 8 10
21 7 30 -4 8 -2 17 4 21 7 4 6 10 -1 19 -8 9 -8 15 0 20 6 3 8 11 5 16 -4 5
-2 9 3 9 5 0 9 6 10 13 4 41 11 68 21 81 9 10 9 16 1 21 -7 5 -4 18 9 41 11
19 16 34 10 34 -6 0 -6 6 -1 18 5 9 7 23 5 30 -3 7 3 20 13 27 13 10 15 14 5
15 -10 0 -11 3 -2 14 9 11 9 16 0 22 -9 5 -8 10 4 18 19 15 23 33 14 68 -6 22
-11 26 -26 20 -11 -4 -335 -5 -720 -2 l-700 5 -10 -22 c-8 -17 -7 -23 2 -23 8
0 8 -3 -2 -9 -9 -6 -10 -11 -2 -15 8 -5 7 -14 -4 -29 -8 -12 -15 -36 -15 -53
0 -17 -7 -37 -15 -44 -12 -10 -13 -16 -4 -26 6 -8 7 -14 2 -14 -10 0 -11 -1
-19 -74 -4 -28 -13 -56 -21 -64 -10 -10 -11 -18 -3 -27 8 -9 8 -15 0 -20 -6
-3 -8 -11 -5 -16 4 -5 -1 -12 -10 -15 -11 -5 -13 -10 -5 -19 7 -8 7 -15 1 -19
-5 -3 -7 -16 -3 -28 3 -13 1 -19 -5 -15 -6 4 -13 0 -17 -8 -3 -8 -1 -17 5 -20
5 -4 6 -12 2 -18 -4 -7 -6 -20 -5 -29 2 -10 -2 -18 -7 -18 -6 0 -11 -18 -11
-39 0 -27 -5 -41 -17 -45 -12 -5 -13 -10 -6 -17 14 -14 -3 -69 -20 -69 -8 0
-8 -3 -2 -8 13 -9 17 -32 6 -32 -5 0 -7 -9 -4 -20 4 -13 -1 -26 -13 -35 -12
-9 -14 -14 -6 -15 9 0 10 -5 4 -17 -5 -10 -7 -24 -5 -30 3 -7 -1 -13 -7 -13
-7 0 -10 -7 -7 -15 4 -8 2 -17 -4 -21 -7 -4 -6 -10 1 -19 8 -9 6 -14 -6 -19
-9 -4 -14 -13 -10 -21 3 -8 2 -15 -3 -15 -12 0 -9 -30 3 -30 6 0 2 -7 -8 -15
-11 -8 -17 -15 -13 -15 4 0 3 -9 -3 -19 -7 -14 -7 -22 0 -26 8 -5 7 -11 -1
-21 -6 -8 -8 -14 -3 -14 4 0 -1 -7 -12 -15 -10 -8 -14 -15 -8 -15 15 0 11 -29
-9 -66 -10 -20 -12 -35 -6 -41 6 -6 3 -16 -9 -29 -15 -17 -20 -34 -12 -49 8
-15 5 -32 -8 -47 -8 -9 -11 -22 -7 -27 3 -6 2 -11 -4 -11 -6 0 -8 -6 -5 -14 3
-8 -2 -28 -11 -45 -9 -19 -11 -31 -5 -31 8 0 8 -6 0 -20 -8 -15 -8 -20 2 -20
8 -1 6 -6 -5 -14 -10 -8 -17 -23 -16 -33 2 -10 0 -24 -4 -30 -5 -7 -5 -13 -1
-13 4 0 -1 -7 -12 -15 -10 -8 -14 -15 -8 -15 12 0 15 -30 3 -30 -5 0 -6 -7 -3
-15 4 -8 1 -15 -5 -15 -6 0 -11 -17 -11 -40 0 -29 -4 -40 -15 -40 -12 0 -14
-4 -5 -19 7 -14 7 -22 -1 -27 -8 -5 -8 -9 1 -14 8 -5 8 -11 -3 -21 -7 -8 -13
-27 -13 -42 1 -16 -2 -31 -6 -33 -4 -3 -4 -12 -1 -21 4 -10 2 -14 -4 -10 -6 4
-13 -2 -16 -13 -3 -11 0 -20 5 -20 6 0 5 -6 -2 -15 -9 -11 -10 -15 -1 -15 8 0
4 -12 -9 -30 -14 -20 -17 -30 -9 -30 10 0 10 -3 2 -11 -6 -6 -9 -18 -6 -25 3
-8 0 -14 -7 -14 -6 0 -10 -6 -7 -12 2 -7 0 -21 -5 -30 -6 -13 -5 -18 4 -18 9
-1 8 -4 -3 -13 -21 -16 -28 -38 -19 -62 4 -12 1 -29 -7 -42 -8 -12 -12 -27 -8
-33 3 -5 2 -10 -3 -10 -6 0 -8 -9 -5 -20 3 -12 0 -20 -7 -20 -7 0 -10 -7 -6
-15 3 -8 2 -15 -3 -15 -4 0 -6 -11 -3 -25 2 -15 0 -25 -7 -25 -22 0 -11 -18
14 -22 14 -3 25 -2 25 1 0 3 423 4 940 1 517 -3 940 -2 940 2 0 4 14 3 30 -2
17 -5 30 -6 30 -2 0 4 20 6 45 4 28 -3 45 0 45 7 0 7 37 11 110 11 81 0 112 3
116 13 3 9 21 11 64 7 33 -3 60 -3 60 1 0 3 11 4 25 1 15 -2 25 0 25 7 0 7 23
11 60 11 39 0 62 4 65 13 4 8 25 11 70 9 42 -3 65 0 65 7 0 7 21 11 50 11 33
0 52 5 56 14 4 10 15 11 45 6 22 -4 39 -3 39 2 0 14 44 27 57 16 7 -5 14 -5
17 1 4 6 13 8 21 4 8 -3 15 0 15 7 0 7 7 10 15 7 8 -4 17 -2 20 2 3 5 14 7 25
4 12 -3 20 0 20 7 0 7 8 10 20 7 11 -3 22 -1 25 4 3 4 12 6 20 2 8 -3 15 0 15
7 0 6 8 10 18 8 9 -1 23 1 30 5 7 5 12 3 12 -4 0 -9 4 -8 13 3 15 19 57 30 57
16 0 -6 8 -5 18 4 9 8 26 14 37 14 11 -1 25 4 30 11 6 6 26 13 45 14 19 2 41
8 49 13 7 6 23 10 35 11 13 0 20 5 18 14 -2 11 0 12 10 4 14 -12 58 0 58 15 0
5 11 7 25 4 15 -2 25 0 25 7 0 7 4 10 9 7 5 -3 14 1 20 8 7 8 23 13 36 12 13
-2 26 3 29 10 3 8 19 14 36 14 16 0 30 5 30 11 0 6 6 9 14 6 8 -3 17 1 20 10
4 9 14 13 26 10 11 -3 18 0 17 7 -1 6 13 12 31 14 17 2 32 8 32 14 0 5 6 8 14
5 8 -3 17 1 20 10 4 8 13 13 20 10 8 -3 17 1 20 10 4 8 13 13 20 10 8 -3 17 1
20 9 3 8 15 14 26 14 11 0 20 5 20 10 0 6 9 10 19 10 11 0 21 5 23 10 2 6 13
12 26 13 12 0 22 7 22 15 0 7 4 11 9 8 5 -3 12 1 15 10 3 8 10 12 16 9 5 -3
10 -1 10 4 0 6 9 11 20 11 11 0 20 5 20 10 0 6 7 10 16 10 9 0 27 12 40 26 13
14 28 22 34 19 5 -3 14 4 20 15 6 11 15 18 19 16 12 -8 51 23 51 40 0 8 5 12
10 9 6 -3 10 -1 10 4 0 6 9 11 19 11 10 0 22 7 25 16 3 8 10 12 16 9 5 -3 10
1 10 10 0 9 5 13 10 10 6 -3 10 1 10 9 0 10 6 13 15 10 10 -4 15 0 15 11 0 9
4 14 8 11 5 -3 29 17 53 44 24 27 47 46 51 44 4 -3 8 -1 8 5 0 15 106 121 121
121 7 0 10 3 7 6 -7 7 34 50 44 47 3 -1 9 4 12 12 3 8 0 15 -6 15 -6 0 3 14
20 30 18 17 37 30 44 30 9 0 9 3 1 11 -13 13 13 49 34 49 7 0 10 7 7 15 -7 16
20 48 31 37 4 -4 6 2 5 13 -4 34 0 45 13 42 6 -1 11 4 9 12 -1 7 8 22 20 33
14 12 22 28 20 41 -2 12 0 19 4 14 7 -7 39 50 36 66 -1 4 3 7 9 7 6 0 9 7 5
15 -3 8 -2 15 3 15 4 0 13 11 19 25 8 17 8 25 1 25 -6 0 -7 5 -4 10 4 6 11 7
17 4 7 -5 9 0 5 15 -3 14 0 24 9 28 8 3 11 9 8 14 -3 5 -1 9 4 9 6 0 8 9 5 20
-3 12 0 20 7 20 7 0 10 7 6 15 -3 8 0 15 6 15 6 0 9 3 5 6 -3 4 0 19 8 34 9
17 10 31 4 37 -6 6 -3 16 9 29 18 19 22 37 11 49 -4 3 2 22 12 42 13 25 15 41
9 53 -7 13 -5 21 5 30 8 7 12 16 9 21 -3 5 -1 9 5 9 7 0 7 8 2 23 -5 12 -5 31
-1 42 4 11 3 25 -2 32 -6 7 -5 14 2 18 8 5 8 11 -1 21 -8 10 -8 14 -1 14 7 0
3 14 -8 33 -13 21 -16 37 -10 47 5 9 5 19 -2 27 -7 9 -7 13 1 13 7 0 8 8 2 23
-5 13 -5 30 -1 37 5 8 3 25 -6 42 -8 15 -11 28 -7 28 4 0 2 5 -4 11 -7 7 -8
21 -3 40 5 16 5 27 1 25 -12 -8 -30 39 -21 54 5 8 1 21 -11 33 -13 15 -16 25
-9 38 7 11 6 19 -1 21 -6 2 -12 16 -12 31 -1 15 -6 27 -10 27 -4 0 -2 10 4 23
6 12 8 19 4 15 -12 -12 -35 25 -24 38 6 8 4 14 -6 18 -8 3 -15 15 -15 26 0 17
6 20 41 20 37 0 41 -2 36 -21 -3 -12 -3 -18 0 -15 11 11 32 -28 22 -40 -6 -8
-5 -14 4 -17 8 -3 15 -18 15 -33 0 -15 6 -32 15 -39 10 -7 12 -16 6 -27 -6
-11 -4 -18 7 -22 8 -3 13 -10 9 -15 -3 -5 -1 -12 4 -16 6 -3 8 -12 4 -20 -3
-8 0 -15 7 -15 6 0 9 -4 5 -9 -3 -5 -1 -13 5 -16 8 -5 7 -11 -1 -21 -10 -12
-10 -15 2 -12 8 2 14 -4 14 -12 0 -8 8 -22 18 -32 11 -10 14 -19 8 -23 -7 -4
-7 -12 1 -25 7 -10 16 -16 20 -14 4 3 3 -7 -2 -21 -13 -34 -13 -36 3 -32 6 1
12 -7 12 -18 0 -11 4 -23 9 -27 5 -3 10 -14 11 -25 3 -32 16 -63 27 -63 6 0 6
-6 -2 -15 -10 -12 -10 -15 4 -15 11 0 16 -9 16 -30 0 -16 5 -30 11 -30 5 0 7
-4 4 -10 -3 -5 -2 -10 4 -10 6 0 8 -6 5 -14 -3 -7 1 -20 9 -28 10 -10 12 -19
5 -31 -7 -13 -5 -19 6 -23 9 -3 13 -10 10 -15 -3 -5 0 -9 7 -9 9 0 9 -3 0 -14
-9 -11 -8 -15 5 -20 9 -3 14 -12 11 -20 -3 -7 3 -19 12 -26 12 -8 16 -21 13
-36 -3 -15 1 -26 11 -30 12 -4 14 -11 7 -30 -7 -18 -6 -24 4 -24 8 0 16 -7 20
-15 3 -8 1 -15 -4 -15 -6 0 -5 -8 2 -19 7 -11 17 -17 23 -14 5 3 5 0 -2 -7 -9
-10 -9 -19 3 -41 8 -16 12 -29 9 -29 -3 0 2 -11 11 -25 8 -13 13 -29 9 -35 -3
-5 0 -13 8 -16 20 -7 28 -39 14 -53 -8 -8 -6 -11 6 -11 12 0 17 -8 17 -29 0
-16 7 -34 15 -41 11 -9 12 -16 5 -25 -8 -9 -6 -14 5 -19 9 -3 15 -18 15 -36 0
-16 5 -30 10 -30 6 0 10 -9 10 -20 0 -12 7 -20 18 -20 9 0 13 -4 7 -8 -14 -10
-17 -32 -4 -32 5 0 7 -4 4 -10 -3 -5 -1 -10 5 -10 7 0 10 -7 7 -15 -4 -8 -2
-17 4 -20 5 -4 7 -11 4 -16 -4 -5 -1 -9 5 -9 7 0 10 -7 6 -15 -3 -8 -1 -15 4
-15 5 0 7 -6 4 -13 -3 -8 2 -19 10 -26 12 -10 13 -18 5 -33 -8 -14 -8 -18 0
-14 6 4 13 -4 17 -19 3 -14 10 -25 16 -25 5 0 7 -4 4 -9 -4 -5 0 -11 6 -14 10
-3 10 -7 -1 -20 -11 -15 -11 -17 2 -17 18 0 30 -27 16 -35 -5 -4 -3 -13 6 -21
8 -9 13 -20 10 -25 -4 -5 -1 -9 6 -9 7 0 9 -3 6 -7 -4 -3 -2 -12 4 -20 6 -7 9
-13 6 -13 -3 0 -1 -13 4 -30 6 -16 16 -30 21 -30 6 0 4 -8 -3 -17 -8 -9 -9
-14 -2 -10 11 7 30 -28 25 -47 -2 -4 4 -19 13 -32 9 -14 11 -24 5 -24 -6 0 -2
-9 8 -21 12 -12 18 -29 15 -40 -3 -11 0 -19 6 -19 7 0 10 -4 6 -9 -3 -5 -1
-12 4 -16 6 -3 8 -12 4 -20 -3 -8 0 -15 6 -15 6 0 11 -11 11 -24 0 -14 6 -31
13 -38 8 -7 12 -19 9 -26 -2 -6 1 -12 7 -12 6 0 11 -13 11 -30 0 -16 5 -30 11
-30 5 0 7 -4 4 -10 -3 -5 -1 -10 5 -10 8 0 8 -6 0 -20 -8 -16 -8 -20 2 -18 8
2 14 -9 16 -29 2 -18 7 -33 12 -33 4 0 7 -11 6 -24 -2 -14 3 -27 11 -30 8 -3
12 -10 8 -16 -3 -5 3 -15 14 -21 14 -10 17 -18 11 -34 -6 -17 -3 -26 13 -40
14 -12 17 -20 9 -23 -8 -2 -5 -13 10 -35 12 -17 17 -27 10 -23 -9 6 -10 2 -1
-18 7 -14 16 -23 20 -20 5 3 4 -7 -1 -21 -13 -34 -13 -36 3 -32 6 1 11 -4 10
-10 -2 -7 2 -13 8 -13 5 0 8 -4 5 -9 -3 -5 1 -12 10 -15 12 -5 14 -9 5 -20 -8
-10 -6 -19 9 -36 14 -16 17 -27 10 -35 -8 -9 -6 -14 5 -19 9 -3 15 -18 15 -36
0 -18 6 -33 15 -36 11 -4 12 -11 5 -24 -7 -13 -6 -20 5 -24 8 -3 15 -15 15
-26 0 -11 5 -20 11 -20 6 0 9 -7 6 -15 -4 -8 -2 -17 4 -20 5 -4 7 -11 4 -16
-4 -5 2 -9 12 -9 10 0 14 -4 8 -8 -15 -10 -17 -32 -3 -32 6 0 9 -3 5 -6 -3 -4
1 -13 9 -22 11 -10 12 -17 4 -22 -7 -4 -4 -15 9 -32 14 -17 17 -28 9 -36 -7
-7 -4 -14 12 -22 15 -8 19 -15 12 -22 -8 -8 -6 -15 4 -26 8 -8 13 -21 10 -29
-3 -7 1 -16 9 -19 8 -4 12 -10 9 -15 -3 -5 0 -9 7 -9 9 0 9 -3 0 -14 -9 -10
-8 -15 4 -20 10 -4 15 -19 15 -50 0 -44 -1 -45 -25 -36 -15 6 -27 6 -30 0 -3
-6 -15 -6 -30 0 -14 5 -25 6 -25 2 0 -4 -209 -6 -465 -4 -319 2 -465 -1 -465
-8 0 -7 -104 -10 -325 -8 -258 2 -326 0 -330 -10 -4 -10 -53 -12 -230 -10
-124 2 -225 0 -225 -4 0 -4 -7 -5 -15 -2 -8 4 -15 1 -15 -5 0 -8 -58 -11 -190
-11 -143 0 -192 -3 -195 -12 -4 -10 -45 -12 -170 -10 -128 2 -166 0 -170 -10
-4 -10 -35 -12 -130 -10 -87 2 -125 0 -125 -8 0 -8 -35 -10 -115 -8 -85 2
-116 0 -120 -9 -3 -10 -40 -13 -135 -13 -95 0 -132 -3 -135 -12 -4 -10 -29
-12 -95 -8 -72 4 -91 2 -100 -10 -9 -12 -31 -14 -115 -12 -73 2 -105 0 -105
-8 0 -7 -28 -10 -84 -9 -81 2 -111 -4 -102 -20 6 -9 -48 -6 -63 4 -6 3 -11 1
-11 -5 0 -7 -6 -8 -17 -2 -9 6 -29 6 -45 2 -17 -6 -28 -5 -28 1 0 6 -13 1 -29
-10 -22 -16 -31 -18 -34 -9 -4 10 -6 10 -6 0 -1 -8 -6 -10 -13 -6 -17 11 -102
4 -109 -8 -4 -6 -30 -9 -58 -7 -28 2 -51 1 -51 -2 0 -3 -11 -4 -25 -1 -16 3
-25 0 -25 -8 0 -7 -8 -10 -20 -7 -11 3 -20 1 -20 -4 0 -6 -6 -7 -16 -1 -18 10
-52 5 -72 -11 -7 -6 -40 -9 -73 -8 -37 2 -59 -2 -59 -8 0 -7 -24 -11 -60 -11
-33 0 -60 -4 -60 -10 0 -6 -28 -10 -64 -10 -36 0 -67 -4 -70 -8 -3 -5 -28 -9
-55 -11 -28 -1 -67 -9 -86 -17 -27 -11 -35 -11 -35 -2 0 10 -2 10 -9 -1 -7
-11 -9 -11 -14 0 -4 11 -8 10 -18 -3 -10 -12 -31 -18 -66 -19 -29 -2 -49 -7
-46 -12 3 -5 -14 -8 -41 -6 -30 3 -47 0 -51 -8 -3 -8 -24 -13 -55 -13 -27 0
-50 -4 -50 -10 0 -5 -22 -10 -50 -10 -27 0 -50 -4 -50 -10 0 -5 -18 -10 -40
-10 -24 0 -43 -5 -46 -13 -3 -8 -17 -11 -39 -9 -21 3 -35 0 -35 -7 0 -6 -17
-11 -40 -11 -24 0 -43 -5 -46 -13 -3 -8 -17 -11 -39 -9 -24 3 -37 0 -40 -10
-4 -10 -15 -13 -31 -10 -14 2 -24 0 -24 -7 0 -6 -17 -11 -40 -11 -23 0 -40 -5
-40 -11 0 -7 -10 -9 -24 -7 -16 3 -27 0 -30 -9 -3 -8 -10 -12 -15 -8 -5 3 -12
1 -16 -4 -3 -6 -12 -8 -20 -4 -8 3 -15 0 -15 -6 0 -6 -9 -11 -20 -11 -11 0
-20 -5 -20 -11 0 -7 -10 -9 -24 -7 -15 3 -27 0 -30 -8 -3 -8 -15 -14 -26 -14
-11 0 -20 -4 -20 -10 0 -5 -10 -10 -23 -10 -12 0 -32 -7 -43 -15 -12 -8 -24
-11 -28 -8 -3 3 -6 1 -6 -6 0 -7 -6 -11 -13 -8 -8 3 -22 -6 -32 -20 -12 -15
-26 -23 -37 -20 -9 3 -16 0 -15 -6 1 -6 -7 -13 -18 -15 -11 -2 -27 -13 -36
-23 -9 -10 -19 -16 -23 -12 -5 6 -10 -12 -7 -29 0 -5 -3 -8 -9 -8 -5 0 -21
-12 -37 -27 -15 -16 -30 -27 -33 -26 -3 1 -6 -11 -7 -25 0 -15 -4 -42 -7 -59
-3 -19 -1 -33 4 -33 6 0 10 -12 10 -27 0 -20 12 -38 40 -62 22 -19 36 -39 33
-45 -3 -6 -3 -8 1 -4 4 3 25 -12 47 -34 21 -22 39 -35 39 -28 0 7 6 6 16 -4 8
-9 22 -16 30 -16 8 0 14 -4 14 -10 0 -5 9 -10 20 -10 12 0 20 -7 21 -17 0 -10
3 -13 5 -6 6 13 58 -11 82 -37 12 -13 13 -13 6 0 -7 13 -6 13 12 0 10 -8 22
-19 26 -25 5 -6 8 -5 8 3 0 9 5 10 19 3 10 -6 22 -7 26 -3 3 4 5 0 3 -8 -2
-11 4 -14 20 -12 12 2 22 0 21 -5 -3 -19 2 -25 15 -14 10 9 16 8 26 -4 7 -8
26 -15 42 -15 16 0 27 -4 24 -8 -2 -4 10 -9 27 -10 18 -2 33 -7 35 -12 2 -6
19 -10 37 -10 19 0 36 -4 39 -9 3 -5 18 -8 33 -8 15 0 29 -6 31 -12 2 -6 21
-11 43 -11 21 0 39 -4 39 -10 0 -5 18 -10 40 -10 22 0 40 -4 40 -10 0 -5 22
-10 49 -10 29 0 51 -5 53 -12 2 -6 21 -11 41 -10 20 1 37 -3 37 -8 0 -6 23
-10 51 -10 27 0 48 -4 45 -8 -3 -5 18 -10 47 -11 29 -1 53 -6 55 -12 2 -5 26
-9 53 -9 27 0 49 -4 49 -10 0 -6 27 -10 60 -10 33 0 60 -4 60 -10 0 -5 24 -10
54 -10 30 0 58 -4 61 -10 3 -5 33 -10 66 -10 33 0 59 -4 59 -10 0 -6 26 -10
59 -10 33 0 61 -5 63 -10 2 -6 33 -11 71 -11 51 -1 70 -5 77 -18 7 -11 9 -12
10 -2 0 10 3 11 13 2 8 -6 17 -8 20 -4 12 11 56 9 61 -3 6 -15 48 -23 74 -13
12 5 24 5 26 0 3 -4 19 -6 36 -3 18 2 30 0 30 -7 0 -7 29 -11 86 -11 54 0 83
-4 79 -10 -7 -11 2 -12 99 -10 38 1 72 -3 75 -9 7 -11 142 -18 159 -7 5 3 12
1 14 -5 5 -15 89 -28 116 -18 12 5 24 5 26 0 3 -4 19 -6 36 -3 18 2 30 0 30
-7 0 -7 36 -11 110 -11 67 0 110 -4 110 -10 0 -6 41 -10 104 -10 59 0 108 -4
111 -10 4 -6 58 -10 130 -10 72 0 126 -4 130 -10 4 -6 60 -10 136 -10 79 0
129 -4 129 -10 0 -6 57 -10 150 -10 88 0 150 -4 150 -10 0 -5 67 -10 160 -12
95 -2 160 1 160 6 0 6 6 2 14 -9 8 -12 20 -16 34 -12 12 3 25 1 28 -4 4 -6 11
-6 18 0 7 6 15 8 18 5 3 -3 83 -5 177 -5 98 0 171 -4 171 -9 0 -13 520 -18
520 -5 0 6 7 2 14 -8 13 -16 87 -17 1422 -12 1394 5 1922 10 1931 19 3 3 11 2
19 -1 8 -3 14 0 14 7 0 7 8 10 20 7 11 -3 23 -1 26 4 3 5 10 7 15 4 18 -12
318 -6 340 5 12 7 41 10 65 8 24 -2 44 -1 44 2 0 3 56 4 125 2 83 -2 125 0
125 7 0 7 54 11 160 11 106 0 160 4 160 11 0 6 35 9 99 8 54 -1 103 1 109 5 6
3 14 1 18 -5 4 -8 9 -7 15 2 7 11 9 11 9 1 0 -9 6 -8 24 3 18 12 48 16 118 15
51 -1 98 0 103 1 6 1 13 1 18 0 4 0 7 4 7 9 0 6 32 10 81 9 44 -1 83 2 86 5 3
3 12 1 19 -5 8 -6 14 -7 18 0 4 6 13 8 21 4 8 -3 15 0 15 5 0 6 13 10 29 10
15 -1 33 2 40 6 6 4 11 2 11 -5 0 -10 3 -10 11 -2 8 8 20 8 35 3 15 -6 26 -5
30 1 4 7 10 6 19 -1 10 -8 14 -7 17 2 5 14 136 27 166 17 9 -3 26 0 37 7 12 7
53 13 100 13 44 0 81 5 83 11 2 6 38 10 83 10 46 0 79 4 79 10 0 6 37 10 90
10 53 0 90 4 90 10 0 6 33 10 80 10 56 0 82 4 86 13 3 9 20 11 64 7 42 -4 61
-2 64 6 3 8 26 12 64 12 32 -1 64 2 71 6 20 13 69 24 76 18 11 -11 35 -10 35
1 0 7 5 5 10 -3 8 -13 10 -13 10 1 0 19 57 32 67 16 3 -5 9 -3 14 4 7 11 9 11
9 1 0 -9 7 -8 25 4 15 10 38 15 60 12 19 -2 35 0 35 5 0 4 5 5 10 2 6 -4 17
-1 25 5 8 7 30 10 50 8 22 -2 36 1 39 9 4 8 24 13 56 13 30 0 50 4 50 11 0 7
17 10 45 7 29 -2 46 1 50 9 3 8 24 13 55 13 30 0 50 4 50 11 0 7 14 10 35 7
23 -3 36 1 40 10 3 10 16 13 40 10 23 -3 36 1 40 10 3 9 15 13 35 10 17 -3 30
0 30 6 0 6 5 4 10 -4 8 -13 10 -13 10 1 0 18 47 32 56 18 3 -5 12 -2 20 6 9 8
31 15 50 15 26 0 34 4 34 18 0 14 2 15 10 2 5 -8 10 -10 10 -3 0 6 9 9 20 6
12 -3 20 0 20 7 0 8 11 11 30 8 18 -3 35 1 41 9 6 7 19 13 29 13 10 0 34 7 54
15 20 8 36 12 36 9 0 -4 7 -1 15 6 8 6 19 9 25 5 5 -3 10 1 10 9 0 11 9 16 30
16 17 0 30 4 30 9 0 5 11 12 25 15 16 4 23 11 19 18 -5 7 -3 8 7 2 22 -14 37
-13 43 2 3 8 15 14 26 14 11 0 20 5 20 10 0 6 9 10 20 10 10 0 24 9 30 21 7
11 17 18 24 16 7 -3 21 6 31 19 10 13 24 24 32 24 18 0 74 51 67 61 -2 4 3 10
12 13 8 3 12 10 9 16 -3 5 -1 10 6 10 7 0 9 3 6 7 -4 3 1 15 10 25 16 18 25
68 12 68 -4 0 -5 9 -2 20 4 15 0 20 -13 20 -14 0 -16 2 -6 9 11 7 11 11 -2 23
-8 9 -12 19 -8 23 4 4 2 5 -3 3 -14 -4 -86 68 -77 78 4 4 1 4 -6 0 -7 -4 -15
-1 -18 8 -3 9 -14 16 -25 16 -10 0 -23 8 -28 18 -5 9 -26 24 -48 31 -21 8 -43
21 -50 30 -10 13 -12 13 -13 2 0 -9 -7 -6 -20 9 -12 14 -20 18 -20 10 0 -9 -8
-6 -21 8 -11 12 -25 20 -31 16 -11 -7 -54 12 -78 35 -10 9 -15 10 -18 2 -2 -7
-10 -6 -25 4 -12 8 -32 15 -45 15 -12 0 -25 6 -28 14 -3 8 -15 11 -30 8 -14
-2 -24 0 -24 7 0 6 -15 11 -34 11 -19 0 -38 5 -41 10 -3 6 -19 10 -36 10 -16
0 -29 5 -29 10 0 6 -18 10 -40 10 -22 0 -40 5 -40 10 0 6 -18 10 -40 10 -22 0
-40 5 -40 10 0 6 -18 10 -40 10 -22 0 -40 5 -40 10 0 6 -18 10 -40 10 -22 0
-40 5 -40 10 0 6 -19 10 -42 10 -24 1 -54 7 -68 14 -16 9 -32 11 -46 6 -15 -6
-26 -5 -34 4 -12 15 -60 28 -60 16 0 -4 -11 -5 -25 -2 -14 2 -25 8 -25 13 0 5
-23 9 -51 9 -27 0 -48 4 -45 8 5 9 -5 11 -66 12 -24 1 -41 7 -48 18 -5 9 -10
13 -10 7 0 -12 -100 -7 -100 5 0 4 -16 10 -35 12 -19 2 -35 1 -35 -3 0 -3 -11
-4 -25 -1 -14 2 -25 8 -25 13 0 5 -31 9 -70 9 -38 0 -70 4 -70 9 0 5 -27 11
-60 13 -33 1 -60 -1 -60 -6 0 -6 -6 -2 -12 7 -13 17 -94 27 -115 14 -6 -4 -16
0 -23 8 -9 11 -34 15 -91 15 -46 0 -79 4 -79 10 0 6 -34 10 -81 10 -44 0 -78
4 -75 9 3 4 -33 9 -81 10 -48 1 -98 8 -112 15 -17 9 -34 11 -48 5 -14 -5 -25
-4 -29 3 -4 7 -9 6 -15 -3 -7 -11 -9 -11 -9 1 0 13 -1 13 -10 0 -9 -13 -10
-13 -10 0 0 13 -1 13 -10 0 -5 -8 -10 -10 -10 -4 0 7 -11 9 -25 6 -15 -2 -25
0 -25 7 0 7 -30 11 -90 11 -49 0 -90 4 -90 9 0 5 -43 11 -95 13 -52 2 -95 -1
-95 -6 0 -5 -7 -2 -16 5 -21 17 -234 30 -234 14 0 -5 -5 -3 -10 7 -8 13 -29
16 -121 17 -61 1 -119 6 -129 11 -10 6 -77 10 -149 10 -76 0 -131 4 -131 9 0
6 -62 11 -145 13 -80 2 -145 0 -145 -5 0 -4 -11 0 -24 8 -19 13 -52 16 -164
14 -77 0 -145 2 -151 5 -5 4 -13 1 -16 -4 -5 -8 -13 -6 -25 5 -15 14 -45 15
-219 13 -129 -2 -201 1 -201 7 0 6 -5 3 -10 -5 -5 -8 -10 -10 -10 -4 0 7 -11
9 -25 6 -15 -2 -25 0 -25 7 0 8 -94 11 -330 11 -212 0 -330 4 -330 10 0 6
-209 11 -592 12 l-593 3 23 23 c12 12 22 29 22 37 0 9 10 20 23 25 12 5 18 9
14 9 -5 1 16 26 47 56 31 30 56 61 56 68 0 18 24 39 33 30 4 -3 7 -1 7 5 0 7
23 35 50 62 28 27 50 59 50 70 0 11 4 19 9 18 5 -2 36 25 69 59 33 34 63 59
66 55 4 -3 4 1 1 10 -5 11 13 36 59 81 36 36 66 70 66 77 0 6 5 8 12 4 7 -4 8
-3 4 4 -4 7 23 41 64 82 38 38 70 75 70 81 0 14 26 39 41 39 7 0 10 3 6 6 -9
9 25 44 37 37 6 -3 8 -3 4 2 -8 9 15 35 32 35 6 0 8 5 5 10 -3 6 -1 10 5 10 7
0 10 6 7 13 -3 7 12 28 34 46 21 19 36 37 33 42 -3 5 -1 9 5 9 24 0 88 79 83
103 -1 4 4 7 12 7 8 0 24 13 37 30 13 16 30 30 38 30 8 0 11 6 7 15 -3 9 0 15
10 15 8 0 12 4 9 10 -3 5 30 46 75 90 45 43 79 83 76 88 -6 10 30 43 38 35 3
-4 6 1 6 10 0 10 7 17 16 17 9 0 14 6 11 13 -2 6 3 19 12 27 8 8 16 13 16 10
1 -3 9 2 18 11 9 9 14 19 11 22 -3 3 10 21 29 41 19 19 37 32 41 29 3 -4 6 0
6 8 0 7 17 28 37 46 20 18 31 33 24 33 -8 0 6 19 30 41 24 23 43 46 41 50 -1
5 3 9 9 9 14 0 64 52 61 63 -1 4 31 40 70 79 40 40 72 77 70 81 -1 5 6 17 18
27 11 9 20 22 20 28 0 7 8 9 18 5 9 -3 14 -3 10 1 -8 10 36 56 53 56 8 0 8 4
1 13 -7 8 -2 20 18 39 15 15 30 24 34 21 3 -4 6 -1 6 6 0 14 56 71 70 71 6 0
9 3 9 8 -3 19 2 33 11 27 6 -3 10 1 10 9 0 9 5 16 11 16 5 0 8 4 5 8 -6 10 29
42 45 42 5 0 7 5 4 10 -3 6 -1 10 4 10 6 0 11 7 11 15 0 8 4 14 9 13 14 -4 62
55 56 70 -2 6 0 12 4 12 15 0 71 54 71 68 0 7 5 10 10 7 6 -3 10 -1 10 4 0 6
8 11 17 11 13 0 14 3 6 11 -8 8 -2 21 25 49 21 21 40 36 45 33 4 -2 7 3 7 11
0 9 7 16 16 16 10 0 14 6 10 15 -5 14 5 20 27 16 5 -1 7 7 5 17 -2 12 16 37
50 69 28 27 52 55 52 62 0 7 5 9 10 6 6 -3 13 1 16 9 3 9 10 14 14 11 5 -3 6
4 3 15 -3 11 0 20 6 20 6 0 11 7 11 15 0 8 4 14 8 13 10 -4 68 54 64 64 -1 4
5 8 13 8 8 0 15 7 15 15 0 8 6 12 14 9 11 -4 13 0 9 17 -4 15 -3 20 5 15 7 -4
12 -2 12 4 0 6 15 25 33 43 17 17 31 35 29 39 -2 7 13 12 31 9 4 0 7 6 7 15 0
9 5 12 12 8 8 -5 9 -2 5 9 -4 11 14 36 58 82 36 36 65 70 65 74 0 16 42 61 51
56 5 -4 9 -2 9 4 0 13 50 67 50 55 0 -5 7 5 16 22 24 48 101 127 118 121 9 -4
18 -2 21 4 4 5 10 7 15 4 5 -3 429 -5 944 -5 560 0 936 -3 938 -9 4 -12 69
-17 86 -7 6 4 12 3 12 -1 0 -5 18 -7 40 -5 25 3 40 0 40 -7 0 -7 21 -11 54
-11 36 0 60 -5 70 -16 12 -12 16 -12 16 -2 0 8 3 9 8 3 8 -12 22 -13 39 -2 6
4 18 0 26 -8 10 -9 34 -15 61 -15 25 0 46 -4 46 -10 0 -5 18 -10 40 -10 22 0
40 -4 40 -10 0 -5 11 -10 24 -10 14 0 28 -5 31 -11 4 -5 12 -8 18 -6 7 2 33
-6 59 -19 26 -13 56 -24 68 -24 11 0 20 -4 20 -10 0 -5 6 -10 14 -10 18 0 67
-26 61 -32 -3 -2 11 -11 30 -18 19 -8 35 -17 35 -22 0 -4 7 -8 15 -8 20 0 66
-45 57 -56 -4 -4 -2 -4 4 -1 13 7 45 -28 36 -39 -4 -4 -2 -4 4 -1 6 4 24 -9
40 -28 16 -19 35 -35 42 -35 7 0 10 -4 7 -10 -3 -5 -1 -10 5 -10 7 0 9 -7 6
-15 -3 -9 1 -18 9 -21 8 -4 12 -10 9 -15 -3 -5 0 -9 6 -9 6 0 8 -4 5 -10 -3
-5 -1 -10 5 -10 6 0 8 -4 5 -10 -3 -5 -1 -10 5 -10 6 0 9 -4 6 -9 -3 -5 2 -12
11 -15 12 -5 13 -10 5 -18 -14 -14 -4 -38 17 -39 10 0 11 -2 4 -6 -9 -3 -10
-10 -3 -23 6 -10 6 -21 2 -24 -5 -3 -5 -30 -2 -60 3 -31 2 -56 -2 -56 -5 0 -4
-8 1 -19 6 -10 7 -21 4 -25 -4 -4 -6 -29 -4 -56 2 -41 -1 -50 -14 -50 -10 0
-13 -4 -9 -12 11 -17 12 -48 3 -48 -4 0 -5 -9 -2 -20 3 -12 0 -20 -6 -20 -7 0
-10 -4 -6 -9 3 -5 1 -12 -4 -16 -6 -3 -8 -12 -4 -20 3 -8 0 -15 -7 -15 -7 0
-10 -7 -6 -15 3 -8 1 -15 -4 -15 -5 0 -7 -7 -4 -15 4 -8 1 -15 -6 -15 -6 0 -8
-4 -5 -10 3 -5 1 -10 -5 -10 -6 0 -9 -4 -6 -9 3 -5 0 -11 -8 -14 -9 -4 -12
-14 -9 -28 4 -15 2 -20 -5 -15 -6 3 -13 2 -17 -4 -3 -5 0 -10 7 -10 9 -1 7 -5
-4 -14 -10 -7 -15 -15 -13 -18 3 -3 -1 -11 -10 -18 -8 -7 -15 -18 -15 -26 0
-17 -44 -64 -59 -64 -7 0 -10 -4 -6 -9 7 -13 -16 -62 -26 -55 -5 3 -9 0 -9 -6
0 -6 -4 -8 -10 -5 -5 3 -10 1 -10 -5 0 -6 -27 -38 -60 -71 -33 -33 -60 -65
-60 -70 0 -6 -4 -8 -9 -4 -6 3 -13 -1 -18 -9 -4 -8 -15 -16 -22 -18 -8 -2 -25
-13 -37 -25 -12 -13 -28 -23 -37 -23 -9 0 -21 -9 -27 -21 -6 -11 -16 -19 -22
-17 -6 2 -22 -6 -36 -19 -14 -13 -31 -23 -39 -23 -8 0 -11 -4 -8 -10 4 -6 -5
-10 -19 -10 -14 0 -26 -5 -26 -11 0 -6 -6 -9 -14 -6 -8 3 -17 -1 -20 -9 -3 -8
-19 -14 -36 -14 -16 0 -30 -4 -30 -10 0 -5 -9 -10 -20 -10 -11 0 -23 -6 -26
-14 -3 -8 -12 -12 -20 -9 -8 3 -21 0 -29 -7 -8 -7 -21 -10 -30 -6 -8 3 -14 0
-12 -7 1 -7 -8 -12 -20 -11 -13 0 -23 -3 -23 -8 0 -5 -4 -6 -10 -3 -5 3 -10 1
-10 -4 0 -6 -13 -11 -30 -11 -16 0 -30 -4 -30 -9 0 -13 -58 -19 -70 -7 -8 8
-11 7 -8 -4 2 -10 -5 -15 -18 -15 -12 -1 -28 -5 -35 -11 -8 -5 -30 -11 -49
-13 -19 -1 -39 -8 -45 -15 -7 -8 -19 -10 -37 -5 -16 4 -28 3 -28 -2 0 -4 -7
-6 -15 -3 -8 4 -15 1 -15 -6 0 -8 -15 -11 -45 -8 -25 2 -45 0 -45 -4 0 -4 -7
-5 -15 -2 -8 4 -15 1 -15 -5 0 -7 -26 -11 -70 -11 -47 0 -72 -4 -75 -12 -4
-10 -33 -12 -110 -10 -70 2 -105 0 -105 -7 0 -7 -57 -11 -171 -11 -111 0 -168
3 -164 10 3 6 2 10 -3 10 -5 0 -7 12 -5 28 2 15 5 33 5 40 1 6 6 12 11 12 5 0
7 9 4 20 -3 11 -2 20 2 20 4 0 5 14 3 31 -3 22 -1 30 6 25 8 -5 11 5 10 27 -1
18 6 47 14 64 10 20 12 36 6 47 -6 11 -5 16 3 16 7 0 9 3 6 6 -3 4 -2 15 3 24
5 10 11 32 12 49 1 17 6 31 11 31 5 0 7 9 4 20 -3 11 -1 22 3 25 4 3 6 14 3
25 -3 12 -2 20 3 19 20 -3 24 2 14 21 -7 13 -7 20 -1 20 6 0 8 7 5 15 -4 8 -1
15 6 15 8 0 11 9 8 25 -3 14 -1 25 5 25 5 0 4 7 -3 15 -9 11 -9 15 -1 15 7 0
9 5 6 10 -3 6 -1 10 4 10 6 0 11 18 11 40 0 23 5 40 11 40 6 0 9 7 5 15 -3 8
-2 15 3 15 9 0 8 31 -3 48 -4 7 -2 12 4 12 6 0 8 5 5 10 -3 6 0 10 8 10 10 0
13 8 9 25 -2 14 3 36 11 49 12 17 13 26 4 35 -8 8 -8 11 0 11 6 0 9 9 6 20 -3
12 -2 20 3 19 20 -3 24 2 14 21 -7 13 -7 20 -1 20 7 0 7 9 1 25 -7 19 -6 25 4
25 18 0 25 20 16 44 -4 12 -1 27 9 37 17 20 22 57 9 65 -5 3 2 20 14 37 13 18
21 34 19 37 -18 27 -20 40 -7 40 7 0 17 7 20 16 4 10 2 13 -6 8 -7 -5 -8 -3
-2 7 5 8 7 22 6 32 -2 9 1 17 6 17 13 0 21 45 11 61 -4 8 1 25 12 41 11 15 16
28 11 28 -5 0 -9 7 -9 15 0 8 4 15 9 15 5 0 7 4 4 9 -3 5 1 12 10 15 13 5 14
9 5 20 -9 10 -9 16 -1 21 8 5 8 11 -1 21 -9 11 -8 14 6 14 10 0 15 3 12 6 -3
4 -2 15 3 25 6 10 6 20 1 23 -5 3 -331 6 -726 6 -519 0 -721 -3 -731 -11 -10
-8 -11 -16 -3 -30 5 -11 6 -19 1 -19 -15 0 -33 -80 -18 -80 6 0 0 -9 -13 -19
-16 -12 -20 -20 -12 -25 9 -6 9 -11 0 -22 -9 -11 -8 -14 2 -14 11 -1 11 -3 -1
-13 -8 -7 -17 -19 -19 -27 -9 -37 -8 -60 2 -60 7 0 3 -7 -7 -15 -11 -8 -17
-15 -13 -15 4 0 3 -10 -4 -21 -7 -15 -8 -19 0 -15 17 11 0 -27 -18 -41 -11 -9
-12 -12 -3 -13 10 0 10 -5 2 -20 -8 -14 -8 -20 0 -20 6 0 8 -5 5 -10 -4 -6
-11 -7 -17 -4 -7 5 -9 0 -6 -14 4 -12 2 -22 -4 -22 -5 0 -6 -6 -1 -12 13 -21
12 -37 -3 -49 -8 -6 -14 -28 -14 -49 0 -25 -5 -40 -16 -44 -9 -3 -12 -11 -8
-18 15 -24 10 -58 -7 -58 -14 0 -16 -7 -12 -32 3 -18 7 -35 9 -37 2 -2 -1 -10
-7 -17 -9 -11 -21 -53 -22 -81 0 -7 -4 -13 -9 -13 -5 0 -6 -4 -3 -10 3 -5 2
-10 -3 -10 -5 0 -7 -13 -4 -28 2 -18 -2 -33 -12 -41 -12 -11 -14 -17 -5 -27 6
-8 7 -14 2 -14 -5 0 -10 -6 -11 -12 -8 -60 -20 -117 -30 -135 -9 -17 -9 -22 1
-26 8 -4 8 -6 0 -6 -6 -1 -9 -10 -5 -23 3 -14 1 -19 -6 -14 -6 3 -13 2 -17 -4
-3 -5 -2 -10 2 -10 5 0 9 -9 9 -20 0 -11 -5 -20 -10 -20 -5 0 -7 -3 -3 -6 3
-4 -1 -14 -10 -22 -10 -11 -12 -17 -4 -20 8 -3 8 -9 0 -24 -8 -15 -8 -19 0
-14 7 5 8 1 4 -11 -4 -10 -13 -22 -21 -27 -12 -7 -12 -10 -1 -17 12 -7 11 -9
-1 -9 -13 0 -13 -1 0 -10 9 -6 11 -10 3 -10 -7 0 -10 -7 -7 -15 4 -8 1 -15 -5
-15 -6 0 -9 -10 -8 -22 2 -12 -3 -34 -11 -50 -7 -16 -11 -35 -8 -43 3 -8 2
-15 -3 -15 -4 0 -6 -11 -3 -25 2 -14 0 -25 -6 -25 -13 0 -22 -49 -10 -56 6 -4
6 -9 -2 -14 -6 -4 -12 -13 -13 -21 -2 -8 -6 -20 -11 -28 -5 -8 -4 -16 3 -20 7
-5 3 -13 -10 -25 -15 -13 -18 -21 -11 -28 8 -8 8 -17 1 -30 -7 -13 -6 -18 3
-18 10 0 9 -3 -1 -9 -16 -10 -23 -33 -22 -68 0 -13 -4 -23 -10 -23 -6 0 -9 -7
-6 -15 4 -8 2 -17 -4 -21 -7 -4 -7 -10 0 -18 7 -9 5 -16 -9 -26 -14 -10 -16
-16 -8 -21 9 -6 9 -11 0 -22 -7 -7 -9 -17 -5 -21 4 -3 -2 -12 -12 -20 -10 -7
-14 -16 -8 -19 15 -9 3 -77 -14 -77 -8 0 -11 -4 -8 -10 12 -19 14 -50 3 -50
-6 0 -9 -3 -5 -6 3 -4 -1 -13 -9 -22 -9 -8 -12 -18 -7 -21 10 -8 12 -52 2 -45
-5 3 -11 -8 -15 -23 -3 -15 -7 -33 -9 -39 -2 -6 2 -17 8 -23 8 -8 7 -11 -4
-11 -9 0 -15 -9 -14 -24 0 -26 15 -49 15 -25 0 11 2 11 10 -1 9 -13 10 -13 10
0 0 13 1 13 10 0 7 -11 10 -11 10 -2 0 10 5 10 20 2 15 -8 20 -8 20 2 0 8 3 9
8 3 4 -7 344 -10 982 -10 810 0 977 2 986 14 7 9 27 12 62 10 29 -2 52 -2 52
1 0 3 25 3 55 2 35 -3 55 0 55 7 0 7 29 11 80 11 47 0 80 4 80 10 0 6 30 10
70 10 40 0 70 4 70 10 0 6 27 10 60 10 33 0 60 4 60 10 0 6 27 10 60 10 33 0
60 4 60 10 0 6 23 10 50 10 28 0 50 5 50 10 0 6 18 10 40 10 22 0 40 5 40 10
0 6 23 10 50 10 28 0 50 5 50 10 0 6 14 10 31 10 17 0 39 5 51 11 11 6 34 12
52 13 21 1 30 6 28 15 -3 12 0 12 12 2 10 -8 16 -9 21 -1 3 6 10 8 15 5 5 -3
11 -1 15 5 3 5 22 10 41 10 19 0 34 5 34 10 0 6 14 10 30 10 17 0 30 5 30 11
0 5 8 9 18 7 11 -2 26 3 35 11 10 7 17 11 17 7 0 -3 16 1 36 9 20 8 45 15 55
15 11 0 19 5 19 11 0 6 8 9 18 7 10 -3 27 1 37 8 10 8 29 14 42 14 13 0 23 5
23 10 0 6 9 10 20 10 11 0 23 6 26 14 3 8 15 11 30 8 15 -3 24 0 24 8 0 7 6
10 14 7 8 -3 17 1 20 10 4 8 13 13 21 9 8 -3 15 -1 15 4 0 5 12 13 28 17 15 4
29 8 32 9 3 1 15 5 28 9 12 4 22 11 22 16 0 5 9 9 20 9 10 0 24 8 29 18 8 12
10 13 11 3 0 -11 4 -10 13 4 8 10 19 15 24 12 6 -4 13 0 17 8 3 8 15 15 26 15
11 0 23 7 26 15 4 8 10 12 15 9 5 -3 9 2 9 10 0 10 6 13 15 10 8 -4 15 -1 15
5 0 6 8 11 18 11 10 0 24 9 32 20 8 11 22 20 32 20 9 0 22 9 28 21 6 11 17 18
23 16 6 -2 21 7 33 20 12 13 29 23 38 23 9 0 19 6 22 14 3 8 19 20 35 26 16 7
29 19 29 27 0 9 6 13 14 10 8 -3 18 5 25 19 7 16 19 24 37 24 18 0 25 4 21 14
-3 8 5 18 19 25 13 6 24 15 24 21 0 6 4 8 10 5 5 -3 10 0 10 8 0 8 11 22 24
33 14 10 23 21 20 26 -3 4 2 8 10 8 8 0 20 9 26 20 6 11 15 18 21 15 5 -4 9 0
9 8 0 8 7 17 15 21 8 3 15 12 15 21 0 8 5 15 10 15 6 0 10 5 10 11 0 6 22 32
50 58 39 37 47 50 38 59 -9 9 -9 12 1 12 16 0 42 26 34 34 -4 3 -1 6 5 6 7 0
12 7 12 15 0 9 7 18 15 21 8 4 15 12 15 19 0 6 9 22 20 35 11 13 20 29 20 37
0 7 5 13 10 13 6 0 10 8 10 19 0 21 23 45 33 34 7 -6 11 15 10 45 -1 6 6 12
14 12 12 0 13 3 4 14 -9 11 -8 18 5 30 9 9 13 24 10 32 -4 11 -2 15 8 11 8 -3
17 1 20 9 3 8 1 14 -5 14 -6 0 -3 7 5 16 16 15 20 28 17 52 -1 6 2 12 7 12 5
0 9 7 10 15 1 8 3 22 4 30 1 8 6 15 11 15 5 0 7 9 4 20 -3 11 -1 20 4 20 5 0
9 7 9 15 0 8 6 15 13 15 8 0 7 4 -3 10 -9 6 -11 10 -3 10 7 0 10 7 7 15 -4 8
-2 15 4 15 5 0 12 9 15 20 3 12 1 18 -5 14 -6 -4 -6 2 1 14 8 15 8 23 0 28 -9
5 -8 10 3 18 16 12 30 116 16 116 -4 0 1 13 10 30 14 25 15 33 4 51 -11 17
-11 27 -1 51 8 21 9 32 2 36 -12 7 -21 97 -11 107 8 9 -3 55 -14 55 -6 0 -8 6
-5 14 3 7 0 19 -6 25 -8 8 -8 11 1 11 6 0 9 7 6 15 -4 8 -12 15 -20 15 -17 0
-17 5 -4 31 8 15 7 21 -5 25 -8 3 -12 10 -9 15 3 5 0 9 -5 9 -13 0 -10 22 4
32 6 4 2 8 -9 8 -12 0 -16 5 -12 15 3 8 2 15 -2 15 -4 0 -13 9 -20 21 -11 17
-11 20 0 14 7 -3 4 1 -7 10 -11 9 -19 21 -17 27 2 6 -4 18 -13 28 -8 9 -12 20
-8 23 3 4 1 7 -5 7 -7 0 -12 6 -12 13 0 8 -9 24 -20 37 -11 13 -20 29 -20 37
0 7 -7 13 -16 13 -8 0 -12 5 -9 10 3 6 1 10 -6 10 -7 0 -10 2 -7 5 11 12 -186
220 -200 211 -5 -3 -14 4 -22 14 -8 10 -18 16 -24 13 -6 -3 -8 -3 -4 2 11 11
-11 35 -31 35 -9 0 -23 9 -31 20 -8 11 -22 20 -32 20 -10 0 -18 4 -18 9 0 5
-42 31 -92 57 -51 25 -96 52 -100 58 -5 8 -8 7 -8 -2 0 -10 -4 -10 -16 2 -8 9
-22 16 -30 16 -8 0 -12 5 -9 10 4 6 -5 10 -19 10 -14 0 -26 5 -26 10 0 6 -13
10 -30 10 -16 0 -30 5 -30 10 0 6 -7 10 -16 10 -8 0 -23 7 -32 16 -10 11 -17
13 -20 5 -2 -7 -10 -6 -25 4 -12 8 -30 15 -40 15 -10 0 -26 7 -35 16 -10 11
-17 13 -20 6 -2 -7 -19 -1 -43 14 -24 15 -51 24 -67 22 -17 -2 -34 4 -44 16
-10 10 -18 14 -18 8 0 -13 -31 -4 -41 11 -4 5 -19 10 -33 10 -15 -1 -29 3 -32
8 -3 5 -25 9 -50 9 -24 0 -44 5 -44 10 0 6 -15 10 -34 10 -19 0 -38 5 -41 10
-3 6 -28 10 -56 10 -27 0 -49 5 -49 10 0 6 -22 10 -50 10 -27 0 -50 5 -50 10
0 6 -27 10 -60 10 -33 0 -60 4 -60 9 0 5 -25 11 -55 13 -30 1 -55 0 -55 -5 0
-4 -10 -1 -23 7 -16 11 -55 16 -145 17 -67 0 -125 5 -128 10 -3 6 -626 9
-1540 9 -844 -1 -1532 -5 -1530 -9 3 -4 -1 -8 -9 -8 -8 0 -15 3 -15 7 0 11
-73 11 -90 0 -8 -5 -11 -10 -6 -10 5 0 1 -9 -9 -20 -10 -11 -22 -17 -26 -14
-8 5 -13 -9 -10 -28 0 -4 -7 -9 -17 -12 -10 -3 -23 -20 -29 -37 -7 -17 -17
-28 -22 -24 -6 3 -11 -1 -11 -9 0 -9 -8 -16 -17 -16 -13 0 -14 -3 -5 -12 8 -8
1 -20 -30 -50 -22 -21 -35 -38 -27 -38 7 0 2 -10 -11 -22 -14 -13 -28 -22 -33
-20 -5 1 -6 -1 -3 -6 2 -4 -6 -16 -20 -27 -19 -14 -22 -21 -13 -31 8 -10 8
-14 0 -14 -14 0 -51 -32 -51 -45 0 -5 -14 -25 -30 -44 -17 -18 -30 -39 -30
-45 0 -6 -4 -5 -9 3 -7 10 -11 5 -16 -18 -4 -17 -11 -29 -16 -25 -5 3 -9 -1
-9 -8 0 -17 -36 -49 -45 -40 -3 4 -3 -1 1 -11 4 -12 -2 -25 -22 -42 -16 -14
-30 -29 -30 -35 -1 -5 -2 -15 -3 -21 0 -5 -5 -7 -11 -4 -5 3 -10 1 -10 -6 0
-16 -42 -59 -59 -59 -11 0 -12 -3 -3 -12 8 -8 2 -20 -26 -47 -25 -24 -37 -43
-34 -56 2 -11 1 -17 -4 -13 -4 5 -14 -1 -21 -12 -8 -11 -19 -18 -24 -15 -5 4
-9 -6 -9 -20 0 -15 -4 -24 -10 -20 -5 3 -10 -1 -10 -9 0 -9 -4 -16 -10 -16 -5
0 -10 -7 -10 -16 0 -8 -5 -12 -10 -9 -5 3 -10 1 -10 -5 0 -6 -5 -8 -12 -4 -7
5 -9 2 -5 -9 6 -16 -40 -74 -56 -69 -5 1 -7 -5 -5 -15 2 -11 -10 -31 -29 -50
-18 -17 -33 -36 -33 -42 0 -6 -19 -30 -42 -53 -28 -28 -42 -50 -39 -63 1 -11
0 -17 -5 -13 -8 8 -54 -37 -54 -53 0 -13 -26 -40 -32 -34 -2 3 -10 -11 -17
-30 -7 -20 -17 -33 -22 -30 -5 4 -9 1 -9 -4 0 -17 -33 -50 -43 -44 -6 3 -7 1
-3 -5 4 -7 2 -12 -4 -12 -6 0 -8 -4 -5 -10 3 -5 1 -10 -4 -10 -6 0 -11 -7 -11
-15 0 -9 -7 -18 -15 -22 -9 -3 -25 -23 -36 -44 -11 -22 -24 -39 -29 -39 -6 0
-10 -7 -10 -16 0 -8 -4 -13 -9 -9 -5 3 -13 -5 -17 -17 -3 -13 -20 -35 -36 -49
-20 -19 -25 -29 -16 -32 8 -4 5 -8 -10 -13 -14 -4 -21 -12 -18 -20 3 -8 2 -14
-3 -14 -14 0 -51 -37 -44 -44 3 -3 0 -6 -7 -6 -7 0 -11 -3 -7 -6 3 -3 -8 -19
-24 -35 -16 -15 -29 -37 -29 -48 0 -12 -6 -18 -17 -17 -12 0 -17 -5 -15 -15 1
-10 -7 -19 -20 -23 -13 -4 -18 -9 -11 -12 8 -3 -7 -25 -37 -56 -28 -28 -48
-53 -46 -56 3 -2 -6 -14 -20 -27 -13 -12 -24 -27 -24 -34 0 -6 -4 -11 -10 -11
-5 0 -10 -6 -10 -13 0 -17 -36 -47 -46 -39 -4 4 -4 -1 -1 -10 6 -18 -54 -93
-66 -81 -4 3 -7 -1 -7 -10 0 -14 -3 -15 -19 -5 -15 9 -17 16 -10 29 6 12 4 19
-6 23 -9 3 -15 18 -15 36 0 16 -5 30 -11 30 -6 0 -9 6 -6 14 3 7 0 19 -6 25
-8 8 -8 11 1 11 9 0 9 6 -2 23 -11 18 -24 56 -30 87 -1 3 -5 11 -10 19 -5 8
-11 28 -13 44 -1 17 -8 34 -14 38 -7 4 -9 14 -6 23 4 10 -1 23 -13 33 -14 12
-16 21 -9 34 7 14 5 21 -10 28 -13 7 -17 17 -14 31 3 12 -2 29 -11 39 -13 14
-14 21 -5 27 9 5 7 10 -6 20 -9 7 -15 19 -12 26 2 7 -5 25 -15 41 -14 19 -16
27 -6 27 10 0 9 3 -2 10 -8 5 -11 10 -6 10 4 0 1 11 -8 25 -9 14 -14 25 -11
25 3 0 -1 13 -9 28 -9 17 -11 34 -6 42 5 8 3 19 -6 27 -8 8 -12 19 -9 24 4 5
2 9 -4 9 -6 0 -8 7 -5 15 4 8 1 15 -5 15 -6 0 -11 14 -11 30 0 17 -5 30 -11
30 -5 0 -9 8 -8 18 3 22 -11 53 -20 47 -4 -2 -5 9 -3 26 3 18 0 29 -8 29 -7 0
-10 7 -6 15 3 8 1 15 -4 15 -5 0 -7 6 -4 14 3 7 -2 16 -11 20 -12 4 -14 10 -7
23 7 12 5 21 -5 31 -8 8 -12 23 -10 33 3 10 -2 20 -10 23 -8 3 -13 12 -10 19
2 6 -2 24 -9 38 -7 15 -10 29 -7 33 4 3 1 6 -7 6 -10 0 -10 3 0 16 11 12 11
15 -1 12 -10 -2 -15 9 -17 40 -2 23 -8 42 -13 42 -6 0 -9 11 -7 23 1 13 -6 32
-16 42 -11 12 -14 21 -8 23 8 2 7 11 -3 26 -8 12 -12 26 -8 29 3 4 0 7 -7 7
-7 0 -11 3 -8 6 4 3 0 21 -8 39 -11 26 -11 35 -1 38 7 3 6 6 -4 6 -17 1 -36
31 -19 31 17 0 -2 30 -19 31 -10 0 -11 2 -4 6 9 3 10 10 3 24 -8 14 -7 19 2
19 6 0 3 6 -7 14 -17 12 -22 27 -27 79 -1 9 -5 17 -9 17 -4 0 -5 9 -2 20 3 12
0 20 -6 20 -7 0 -9 5 -6 10 3 6 1 10 -6 10 -9 0 -9 3 0 14 9 11 8 15 -4 20 -9
3 -13 10 -10 16 3 5 2 10 -3 10 -6 0 -8 9 -5 20 3 11 1 20 -4 20 -5 0 -10 12
-11 28 -1 15 -7 29 -12 30 -6 2 -10 16 -10 32 0 15 -7 33 -15 40 -11 9 -12 16
-5 25 8 9 6 14 -5 19 -9 3 -15 18 -15 36 0 21 -5 30 -16 30 -14 0 -14 3 -3 16
10 13 10 17 -2 25 -8 5 -10 9 -6 9 5 0 2 6 -5 13 -15 15 -48 18 -48 5 0 -5 -8
-4 -19 1 -12 7 -924 10 -2712 10 -2528 0 -2696 -1 -2717 -17z m9488 -5071 c0
-13 80 -19 80 -6 0 5 5 2 11 -7 6 -11 22 -18 39 -18 17 0 30 -5 30 -11 0 -7
10 -9 24 -7 15 3 27 0 30 -8 3 -8 14 -14 25 -14 10 0 22 -8 25 -17 6 -15 8
-15 16 -3 6 9 10 10 10 3 0 -6 9 -15 20 -18 11 -3 27 -13 36 -22 13 -14 17
-14 25 -2 5 8 9 9 9 3 0 -18 64 -84 82 -84 18 0 41 -24 31 -33 -3 -4 0 -7 7
-7 7 0 11 -3 7 -6 -9 -9 25 -44 36 -37 6 3 7 1 3 -5 -4 -7 -2 -12 3 -12 6 0
11 -9 11 -20 0 -11 4 -20 10 -20 5 0 9 -3 9 -7 -3 -20 2 -33 14 -33 8 0 14 -7
14 -15 0 -8 -4 -15 -9 -15 -5 0 -1 -11 8 -25 9 -14 14 -36 12 -50 -3 -14 -1
-25 4 -25 5 0 7 -4 3 -10 -3 -5 -6 -25 -7 -45 -1 -19 -6 -35 -11 -35 -5 0 -7
-11 -5 -25 3 -14 1 -25 -3 -25 -5 0 -6 -7 -3 -15 4 -10 0 -15 -12 -15 -13 0
-15 -3 -7 -11 17 -17 -14 -79 -35 -71 -9 3 -13 1 -9 -5 4 -6 0 -24 -8 -39 -8
-16 -15 -25 -15 -21 0 4 -6 2 -14 -5 -8 -7 -12 -16 -9 -20 2 -5 -1 -8 -6 -8
-6 0 -11 -6 -11 -13 0 -15 -35 -47 -53 -47 -7 0 -19 -9 -27 -20 -8 -11 -22
-20 -31 -20 -9 0 -22 -7 -29 -15 -11 -13 -15 -13 -21 -3 -7 10 -9 9 -9 -4 0
-16 -12 -23 -24 -15 -2 1 -13 -6 -23 -16 -11 -9 -23 -14 -26 -10 -4 3 -7 1 -7
-6 0 -7 -6 -11 -14 -8 -8 3 -17 -1 -20 -10 -4 -9 -14 -13 -26 -10 -11 3 -20 1
-20 -4 0 -5 -3 -8 -7 -7 -5 0 -16 -2 -26 -7 -9 -4 -31 -5 -47 -3 -18 3 -31 0
-34 -9 -4 -10 -54 -13 -236 -13 -147 0 -230 4 -230 10 0 6 -18 10 -40 10 -22
0 -40 5 -40 10 0 6 -13 10 -30 10 -16 0 -30 5 -30 10 0 6 -13 10 -30 10 -16 0
-30 5 -30 10 0 6 -9 10 -20 10 -11 0 -20 5 -20 10 0 6 -9 10 -19 10 -11 0 -21
5 -23 10 -2 6 -13 12 -25 13 -12 0 -20 4 -19 7 2 3 -5 14 -15 24 -11 11 -19
14 -19 8 0 -12 -154 135 -156 149 -1 5 -2 14 -3 19 0 6 -8 10 -17 10 -13 0
-14 3 -5 14 9 10 8 15 -4 20 -9 3 -15 18 -15 36 0 16 -5 30 -11 30 -5 0 -7 5
-4 10 3 6 1 10 -6 10 -8 0 -8 4 1 15 9 11 9 15 1 15 -9 0 -9 5 -1 21 10 17 8
21 -10 26 -15 4 -19 10 -14 22 3 9 7 22 7 29 0 6 5 12 10 12 5 0 7 11 5 25 -3
14 -1 25 5 25 5 0 5 6 -2 13 -8 11 -6 18 9 32 14 13 17 21 9 26 -8 5 -5 10 9
18 14 8 19 17 15 32 -5 16 -3 20 7 14 8 -5 11 -3 8 5 -2 7 20 37 49 67 29 29
53 58 53 64 0 5 4 7 10 4 5 -3 15 3 22 15 7 11 21 20 30 20 10 0 22 9 29 21 7
14 17 19 30 16 14 -4 19 0 19 16 0 16 3 18 9 9 7 -11 11 -11 24 2 8 9 27 16
41 16 14 0 26 5 26 10 0 6 9 10 20 10 11 0 20 5 20 11 0 5 4 8 9 4 5 -3 12 -1
15 3 3 5 17 7 31 5 16 -4 27 0 31 10 4 11 12 13 32 7 19 -5 31 -3 40 6 10 11
58 14 217 14 114 0 205 -4 205 -9z m-7613 -23 c7 -6 13 -18 13 -28 0 -10 7
-23 15 -30 8 -7 12 -16 9 -21 -3 -5 0 -9 6 -9 6 0 8 -4 5 -10 -3 -5 -1 -10 5
-10 6 0 8 -4 5 -10 -3 -5 -1 -10 5 -10 7 0 10 -6 7 -14 -3 -8 1 -17 10 -20 8
-4 13 -13 10 -20 -3 -8 1 -17 10 -20 9 -4 13 -14 10 -26 -3 -11 -1 -20 4 -20
5 0 18 -9 29 -20 11 -11 17 -20 14 -20 -4 0 -1 -7 6 -15 6 -8 9 -19 5 -25 -3
-5 1 -13 9 -16 9 -3 14 -10 11 -14 -3 -5 4 -15 16 -23 13 -9 16 -16 8 -19 -8
-3 -7 -8 4 -20 9 -8 13 -19 9 -23 -4 -5 -2 -5 5 -1 13 7 26 -10 28 -36 1 -10
9 -26 17 -35 9 -10 19 -28 23 -41 4 -13 11 -20 18 -16 9 5 9 4 0 -6 -8 -9 -7
-16 4 -30 18 -20 45 -16 36 6 -3 8 0 14 7 14 6 0 8 5 5 10 -3 6 -1 10 5 10 6
0 9 4 6 8 -3 5 4 14 14 22 10 8 17 17 14 22 -3 4 0 8 6 8 6 0 9 4 6 9 -3 5 2
12 11 15 15 6 15 8 3 16 -9 6 -10 10 -3 10 6 0 15 10 18 22 4 11 18 31 32 44
17 16 21 24 12 30 -9 5 -6 10 9 15 14 5 20 14 16 24 -3 8 -2 15 4 15 6 0 13
14 17 30 4 17 11 30 16 30 6 0 7 5 4 10 -3 6 -1 10 4 10 6 0 11 7 11 16 0 8 4
13 10 9 5 -3 15 13 21 36 7 22 18 43 25 46 6 2 9 13 7 24 -4 13 -1 19 8 17 8
-2 13 4 11 13 -1 9 5 20 14 23 13 5 14 9 4 21 -10 12 -10 15 2 15 8 0 19 5 25
11 9 9 401 14 410 5 7 -7 -22 -72 -36 -83 -14 -11 -14 -12 -1 -13 13 -1 13 -2
0 -13 -8 -7 -21 -24 -27 -39 -7 -16 -16 -28 -21 -28 -5 0 -14 -18 -21 -40 -7
-22 -16 -38 -21 -35 -6 4 -10 -1 -10 -9 0 -9 -7 -16 -16 -16 -13 0 -14 -3 -5
-14 9 -11 8 -15 -4 -20 -9 -3 -14 -10 -11 -14 3 -5 -6 -21 -19 -36 -14 -16
-22 -33 -19 -37 3 -5 -2 -9 -11 -9 -9 0 -13 -4 -10 -10 3 -5 2 -10 -3 -10 -6
0 -8 -10 -4 -22 3 -14 2 -19 -6 -14 -7 4 -15 0 -18 -8 -3 -9 -10 -14 -14 -11
-5 3 -6 -4 -3 -15 3 -11 1 -20 -5 -20 -5 0 -17 -12 -27 -26 -12 -18 -13 -24
-4 -19 8 3 6 0 -3 -8 -10 -8 -18 -21 -18 -28 0 -8 -9 -21 -20 -29 -11 -8 -20
-23 -20 -33 0 -9 -6 -20 -14 -23 -8 -3 -12 -13 -9 -25 4 -13 1 -19 -8 -17 -8
2 -13 -3 -11 -11 1 -7 -6 -20 -16 -30 -10 -9 -25 -33 -31 -54 -7 -20 -17 -35
-22 -32 -5 4 -9 -3 -9 -15 0 -12 -4 -19 -9 -16 -5 3 -16 -15 -26 -39 -9 -25
-22 -48 -29 -52 -6 -5 -17 -21 -24 -36 -7 -16 -17 -25 -23 -21 -7 4 -9 -2 -7
-16 3 -26 -2 -28 -99 -31 -35 -1 -66 1 -70 4 -3 4 -12 2 -19 -4 -8 -7 -14 -7
-19 1 -5 8 -10 8 -20 0 -10 -8 -15 -8 -20 0 -5 8 -11 8 -19 1 -10 -8 -23 -2
-49 25 -38 36 -47 50 -24 39 6 -4 4 0 -5 8 -10 8 -18 19 -18 26 0 6 -9 20 -20
31 -11 11 -20 27 -20 35 0 8 -4 15 -10 15 -5 0 -10 7 -10 15 0 8 -9 24 -20 35
-11 11 -20 22 -20 25 0 3 0 10 0 15 0 6 -7 10 -16 10 -10 0 -13 6 -9 18 3 13
-3 25 -19 37 -14 11 -22 23 -19 28 3 6 -2 16 -12 24 -14 9 -15 13 -4 13 9 0
10 3 3 8 -6 4 -19 22 -28 40 -9 17 -22 32 -28 32 -6 0 -8 3 -5 6 4 4 -3 20
-15 37 -13 18 -16 27 -7 22 7 -4 2 3 -13 18 -16 14 -28 33 -28 42 0 8 -5 15
-11 15 -6 0 -9 6 -6 13 2 6 -5 20 -16 30 -11 9 -15 17 -8 17 7 0 -1 12 -16 26
-15 14 -27 32 -25 40 2 8 -2 14 -9 14 -6 0 -9 6 -6 13 3 8 -8 24 -23 37 -15
13 -26 29 -23 37 3 7 0 13 -7 13 -6 0 -8 5 -5 10 3 6 1 10 -6 10 -7 0 -10 3
-6 6 3 3 -3 15 -13 27 -11 11 -17 23 -15 27 3 5 -2 11 -11 14 -8 3 -13 10 -9
15 3 5 -5 17 -17 25 -12 9 -17 16 -11 16 8 0 8 7 0 25 -7 14 -16 25 -20 25 -4
0 -3 6 4 13 15 16 406 12 426 -5z m5089 13 c3 5 9 7 14 4 5 -3 174 -6 374 -5
362 0 365 0 385 -21 15 -17 18 -26 10 -40 -7 -13 -6 -19 1 -19 7 0 8 -6 1 -19
-6 -10 -7 -21 -4 -25 10 -10 11 -46 1 -46 -5 0 -4 -9 2 -20 7 -13 7 -20 1 -20
-6 0 -7 -7 -4 -17 4 -11 3 -14 -5 -9 -7 4 -12 1 -12 -9 0 -9 -6 -15 -12 -12
-7 2 -12 11 -10 18 1 8 -4 6 -13 -5 -10 -14 -18 -16 -27 -8 -13 10 -148 21
-148 12 0 -3 -49 -3 -110 0 -61 3 -111 3 -111 0 -9 -35 -16 -179 -9 -178 69 5
420 -5 415 -11 -3 -5 -1 -12 4 -16 10 -6 7 -37 -4 -55 -4 -6 -2 -17 5 -25 7
-9 8 -15 0 -20 -7 -4 -7 -12 0 -26 7 -12 7 -25 2 -36 -5 -9 -7 -24 -5 -34 5
-18 -5 -19 -207 -19 l-212 0 4 -55 c1 -31 -1 -55 -6 -55 -6 0 -5 -5 2 -12 8
-8 8 -17 1 -30 -7 -13 -6 -20 3 -23 8 -3 97 -4 198 -3 158 3 185 5 182 18 -2
11 2 10 12 -4 15 -19 41 -13 30 7 -3 7 3 1 15 -13 23 -29 33 -60 20 -60 -6 0
-5 -8 1 -20 6 -11 7 -20 2 -20 -10 0 -9 -30 2 -48 4 -7 2 -12 -4 -12 -7 0 -8
-6 -2 -16 11 -19 4 -54 -10 -54 -5 0 -6 -4 -3 -10 4 -7 -138 -10 -418 -10
l-425 0 -4 30 c-3 16 -1 35 3 42 4 7 3 18 -3 25 -7 9 -7 13 0 13 6 0 7 13 2
34 -4 19 -4 40 1 47 4 7 3 19 -3 26 -6 7 -6 13 -1 13 5 0 6 24 3 55 -3 30 -3
61 1 67 4 7 3 18 -3 25 -6 7 -6 13 -1 13 5 0 6 24 3 55 -3 30 -3 61 1 67 4 7
3 18 -3 25 -6 7 -6 13 -1 13 5 0 6 24 3 55 -3 30 -3 61 1 67 4 7 3 18 -3 25
-7 9 -7 13 0 13 6 0 7 13 2 34 -4 19 -4 40 1 47 4 7 3 19 -3 26 -7 9 -7 13 0
13 6 0 7 13 2 34 -4 19 -4 40 1 47 4 7 4 20 -1 29 -5 9 -4 23 1 33 7 11 6 17
-1 17 -7 0 -8 6 -1 19 6 10 8 21 4 24 -3 3 -3 17 1 31 5 22 9 24 36 16 18 -5
32 -5 36 1z m-2913 -8 c-9 -3 -10 -10 -3 -24 8 -13 7 -19 0 -19 -8 0 -8 -6 0
-20 8 -14 8 -20 0 -20 -8 0 -8 -6 0 -20 6 -11 7 -20 3 -20 -4 0 -6 -36 -3 -80
3 -44 1 -80 -3 -80 -4 0 -3 -9 3 -20 6 -11 7 -20 3 -20 -4 0 -6 -36 -3 -80 3
-44 1 -80 -3 -80 -4 0 -3 -9 3 -20 8 -14 8 -20 0 -20 -8 0 -8 -6 0 -20 8 -14
8 -20 0 -20 -8 0 -8 -6 0 -20 6 -11 7 -20 2 -20 -5 0 -6 -18 -2 -40 4 -22 3
-40 -2 -40 -5 0 -4 -9 2 -20 6 -11 7 -20 2 -20 -4 0 -5 -27 -2 -60 3 -33 2
-60 -2 -60 -5 0 -4 -9 2 -20 6 -11 7 -20 3 -20 -4 0 -7 -34 -5 -76 6 -130 24
-119 -202 -116 l-194 3 -4 34 c-2 19 0 35 4 35 5 0 4 9 -2 20 -6 11 -7 20 -3
20 4 0 6 43 3 96 -3 53 -2 98 3 101 4 2 2 13 -3 24 -6 10 -7 19 -2 19 5 0 6
18 2 40 -4 22 -3 40 2 40 5 0 4 9 -2 20 -6 11 -7 20 -2 20 5 0 6 18 2 40 -4
22 -3 40 2 40 5 0 4 9 -2 20 -6 11 -7 20 -3 20 4 0 6 54 3 120 -3 66 -1 120 3
120 4 0 3 9 -3 20 -6 11 -7 20 -2 20 4 0 5 27 2 60 -3 33 -2 60 2 60 5 0 4 9
-2 20 -6 11 -7 20 -2 20 5 0 7 11 4 25 l-4 25 208 -1 c115 0 203 -3 197 -6z
m1485 -8 c39 -4 72 -11 72 -16 0 -5 16 -9 35 -9 34 0 42 -3 92 -28 13 -7 34
-12 48 -12 14 0 25 -4 25 -10 0 -5 9 -10 20 -10 11 0 20 -4 20 -10 0 -5 9 -10
20 -10 11 0 23 -7 26 -15 4 -9 25 -24 48 -35 22 -11 37 -19 33 -20 -13 0 61
-70 75 -70 10 0 10 -2 -1 -9 -11 -7 -9 -10 8 -16 11 -3 21 -13 21 -21 0 -8 5
-14 12 -14 6 0 9 -3 5 -6 -3 -3 4 -15 15 -26 11 -11 17 -26 14 -33 -2 -7 2
-19 9 -25 8 -7 12 -16 9 -21 -3 -5 -1 -9 4 -9 6 0 7 -14 2 -35 -5 -21 -4 -38
2 -41 5 -3 4 -12 -4 -22 -10 -12 -10 -16 -1 -19 9 -3 10 -10 3 -23 -6 -10 -6
-21 -1 -24 4 -3 6 -17 4 -31 -3 -13 -10 -22 -15 -19 -6 4 -8 -4 -7 -17 2 -13
-1 -31 -6 -39 -10 -15 -11 -20 -14 -42 0 -6 -4 -8 -8 -5 -3 4 -11 -3 -18 -16
-6 -12 -17 -21 -23 -20 -7 2 -12 -2 -12 -8 0 -17 -115 -126 -128 -121 -6 2
-16 -6 -22 -18 -6 -12 -18 -19 -25 -16 -7 2 -16 -2 -19 -10 -3 -8 -15 -14 -26
-14 -11 0 -20 -4 -20 -10 0 -5 -9 -10 -20 -10 -11 0 -20 -4 -20 -10 0 -5 -13
-10 -30 -10 -16 0 -30 -4 -30 -10 0 -5 -18 -10 -40 -10 -25 0 -43 -5 -46 -13
-4 -10 -17 -12 -49 -7 -25 4 -45 3 -45 -2 0 -5 -4 -6 -10 -3 -5 3 -10 1 -10
-4 0 -12 -652 -16 -663 -4 -4 3 -2 12 4 19 7 8 7 14 -1 19 -7 4 -7 12 0 26 8
13 7 19 0 19 -6 0 -8 5 -3 13 11 18 12 37 2 37 -6 0 -5 8 1 20 6 11 7 20 3 20
-10 0 -8 83 1 99 4 6 2 11 -4 11 -6 0 -8 5 -4 12 10 15 11 78 1 78 -4 0 -3 9
3 20 8 14 8 20 0 20 -8 0 -8 6 0 20 8 14 8 20 0 20 -8 0 -8 6 0 20 6 11 7 20
3 20 -10 0 -8 83 1 99 4 6 2 11 -4 11 -6 0 -8 5 -4 12 10 15 11 78 1 78 -4 0
-3 9 3 20 8 14 8 20 0 20 -8 0 -8 6 0 20 8 14 8 20 0 20 -8 0 -8 6 0 20 6 11
7 20 3 20 -10 0 -8 83 1 99 4 6 2 11 -4 11 -6 0 -8 5 -4 12 9 14 11 78 3 78
-3 0 -4 14 -1 30 l4 31 307 -5 c168 -2 339 -7 379 -11z"/>
<path d="M10560 5460 c0 -5 -10 -10 -22 -10 -13 0 -44 0 -70 0 -27 0 -48 -4
-48 -10 0 -5 -11 -10 -24 -10 -14 0 -28 -5 -31 -10 -4 -6 -10 -8 -15 -5 -5 3
-18 -3 -29 -14 -11 -11 -22 -17 -25 -14 -3 3 -26 -15 -50 -41 -25 -25 -50 -46
-56 -46 -6 0 -9 -4 -5 -9 3 -5 -4 -26 -16 -45 -12 -21 -16 -36 -10 -36 9 0 9
-5 0 -21 -9 -17 -8 -20 3 -13 11 6 11 5 -1 -9 -9 -12 -10 -17 -2 -17 7 0 10
-4 7 -9 -3 -5 1 -12 9 -15 13 -4 14 -10 5 -26 -9 -16 -8 -22 5 -26 8 -3 12
-10 9 -15 -3 -5 0 -9 7 -9 7 0 10 -3 7 -6 -9 -8 65 -83 76 -77 4 3 19 -7 32
-22 13 -16 24 -22 24 -15 0 10 3 10 15 0 8 -7 13 -15 11 -19 -5 -8 4 -9 92
-17 34 -3 62 -10 62 -15 0 -5 27 -9 60 -9 33 0 60 4 60 10 0 6 23 10 50 10 28
0 50 4 50 9 0 8 32 22 55 25 6 1 14 7 18 14 4 6 15 12 23 12 24 0 130 112 126
133 -2 10 0 17 5 16 19 -3 23 2 13 21 -8 15 -8 20 1 20 8 0 8 4 1 13 -7 8 -7
18 -2 27 5 9 5 19 -2 27 -7 9 -7 13 1 13 13 0 -3 45 -24 66 -8 9 -15 22 -15
30 0 8 -6 14 -14 14 -8 0 -28 14 -46 30 -18 17 -38 30 -46 30 -8 0 -14 5 -14
10 0 6 -9 10 -20 10 -10 0 -24 8 -29 18 -8 13 -11 14 -11 2 0 -12 -3 -11 -11
3 -8 14 -24 17 -89 17 -47 0 -80 4 -80 10 0 6 -4 10 -10 10 -5 0 -10 -4 -10
-10z"/>
<path d="M6537 5457 c-1 -5 0 -34 3 -63 4 -31 2 -58 -4 -64 -7 -7 -5 -10 4
-10 9 0 11 -3 4 -10 -6 -6 -7 -35 -4 -70 3 -35 2 -64 -4 -70 -7 -7 -5 -10 4
-10 9 0 11 -3 4 -10 -6 -6 -7 -35 -4 -70 3 -35 2 -64 -4 -70 -7 -7 -5 -10 4
-10 9 0 10 -3 5 -9 -6 -6 -8 -35 -7 -65 l4 -56 58 0 c33 0 62 5 65 10 3 6 35
10 71 10 45 0 66 4 70 14 3 8 15 11 30 8 15 -3 24 0 24 8 0 7 7 10 15 6 8 -3
15 -1 15 3 0 5 17 20 38 32 41 25 62 44 62 54 0 4 9 19 20 35 11 15 17 30 13
34 -3 3 1 6 11 6 14 0 15 4 6 20 -8 14 -8 20 0 20 7 0 8 6 1 17 -5 9 -5 26 -1
38 5 13 3 28 -6 40 -8 10 -14 28 -14 38 0 11 -8 26 -17 34 -10 8 -12 12 -6 8
9 -4 11 -1 7 9 -3 9 -12 16 -20 16 -8 0 -13 5 -11 12 1 6 -13 19 -31 28 -19 9
-37 20 -40 26 -12 16 -51 34 -76 34 -13 0 -29 7 -36 15 -9 11 -16 12 -25 5 -7
-6 -16 -7 -18 -3 -6 9 -81 8 -96 -1 -5 -3 -14 1 -21 9 -14 17 -87 18 -93 2z"/>
</g>
</svg>
